<?xml version="1.0" standalone="no"?>
<svg xmlns:xlink="http://www.w3.org/1999/xlink" id="wave" style="transform:rotate(0deg); transition: 0.3s" viewBox="0 0 1440 490" version="1.1" xmlns="http://www.w3.org/2000/svg"><defs><linearGradient id="sw-gradient-0" x1="0" x2="0" y1="1" y2="0"><stop stop-color="rgba(0, 62, 134, 1)" offset="0%"/><stop stop-color="rgba(0, 134, 255, 1)" offset="100%"/></linearGradient></defs><path style="transform:translate(0, 0px); opacity:1" fill="url(#sw-gradient-0)" d="M0,49L80,81.7C160,114,320,180,480,220.5C640,261,800,278,960,253.2C1120,229,1280,163,1440,163.3C1600,163,1760,229,1920,236.8C2080,245,2240,196,2400,155.2C2560,114,2720,82,2880,114.3C3040,147,3200,245,3360,285.8C3520,327,3680,310,3840,326.7C4000,343,4160,392,4320,400.2C4480,408,4640,376,4800,334.8C4960,294,5120,245,5280,187.8C5440,131,5600,65,5760,106.2C5920,147,6080,294,6240,367.5C6400,441,6560,441,6720,416.5C6880,392,7040,343,7200,285.8C7360,229,7520,163,7680,187.8C7840,212,8000,327,8160,351.2C8320,376,8480,310,8640,253.2C8800,196,8960,147,9120,106.2C9280,65,9440,33,9600,16.3C9760,0,9920,0,10080,16.3C10240,33,10400,65,10560,81.7C10720,98,10880,98,11040,122.5C11200,147,11360,196,11440,220.5L11520,245L11520,490L11440,490C11360,490,11200,490,11040,490C10880,490,10720,490,10560,490C10400,490,10240,490,10080,490C9920,490,9760,490,9600,490C9440,490,9280,490,9120,490C8960,490,8800,490,8640,490C8480,490,8320,490,8160,490C8000,490,7840,490,7680,490C7520,490,7360,490,7200,490C7040,490,6880,490,6720,490C6560,490,6400,490,6240,490C6080,490,5920,490,5760,490C5600,490,5440,490,5280,490C5120,490,4960,490,4800,490C4640,490,4480,490,4320,490C4160,490,4000,490,3840,490C3680,490,3520,490,3360,490C3200,490,3040,490,2880,490C2720,490,2560,490,2400,490C2240,490,2080,490,1920,490C1760,490,1600,490,1440,490C1280,490,1120,490,960,490C800,490,640,490,480,490C320,490,160,490,80,490L0,490Z"/><defs><linearGradient id="sw-gradient-1" x1="0" x2="0" y1="1" y2="0"><stop stop-color="rgba(0, 62, 134, 1)" offset="0%"/><stop stop-color="rgba(0, 134, 255, 1)" offset="100%"/></linearGradient></defs><path style="transform:translate(0, 50px); opacity:0.9" fill="url(#sw-gradient-1)" d="M0,441L80,400.2C160,359,320,278,480,253.2C640,229,800,261,960,302.2C1120,343,1280,392,1440,375.7C1600,359,1760,278,1920,269.5C2080,261,2240,327,2400,343C2560,359,2720,327,2880,318.5C3040,310,3200,327,3360,351.2C3520,376,3680,408,3840,424.7C4000,441,4160,441,4320,392C4480,343,4640,245,4800,245C4960,245,5120,343,5280,334.8C5440,327,5600,212,5760,163.3C5920,114,6080,131,6240,155.2C6400,180,6560,212,6720,196C6880,180,7040,114,7200,81.7C7360,49,7520,49,7680,49C7840,49,8000,49,8160,81.7C8320,114,8480,180,8640,236.8C8800,294,8960,343,9120,318.5C9280,294,9440,196,9600,171.5C9760,147,9920,196,10080,187.8C10240,180,10400,114,10560,73.5C10720,33,10880,16,11040,49C11200,82,11360,163,11440,204.2L11520,245L11520,490L11440,490C11360,490,11200,490,11040,490C10880,490,10720,490,10560,490C10400,490,10240,490,10080,490C9920,490,9760,490,9600,490C9440,490,9280,490,9120,490C8960,490,8800,490,8640,490C8480,490,8320,490,8160,490C8000,490,7840,490,7680,490C7520,490,7360,490,7200,490C7040,490,6880,490,6720,490C6560,490,6400,490,6240,490C6080,490,5920,490,5760,490C5600,490,5440,490,5280,490C5120,490,4960,490,4800,490C4640,490,4480,490,4320,490C4160,490,4000,490,3840,490C3680,490,3520,490,3360,490C3200,490,3040,490,2880,490C2720,490,2560,490,2400,490C2240,490,2080,490,1920,490C1760,490,1600,490,1440,490C1280,490,1120,490,960,490C800,490,640,490,480,490C320,490,160,490,80,490L0,490Z"/><defs><linearGradient id="sw-gradient-2" x1="0" x2="0" y1="1" y2="0"><stop stop-color="rgba(0, 62, 134, 1)" offset="0%"/><stop stop-color="rgba(0, 134, 255, 1)" offset="100%"/></linearGradient></defs><path style="transform:translate(0, 100px); opacity:0.8" fill="url(#sw-gradient-2)" d="M0,245L80,261.3C160,278,320,310,480,269.5C640,229,800,114,960,114.3C1120,114,1280,229,1440,228.7C1600,229,1760,114,1920,122.5C2080,131,2240,261,2400,310.3C2560,359,2720,327,2880,334.8C3040,343,3200,392,3360,416.5C3520,441,3680,441,3840,424.7C4000,408,4160,376,4320,343C4480,310,4640,278,4800,253.2C4960,229,5120,212,5280,179.7C5440,147,5600,98,5760,81.7C5920,65,6080,82,6240,89.8C6400,98,6560,98,6720,114.3C6880,131,7040,163,7200,147C7360,131,7520,65,7680,106.2C7840,147,8000,294,8160,294C8320,294,8480,147,8640,114.3C8800,82,8960,163,9120,204.2C9280,245,9440,245,9600,220.5C9760,196,9920,147,10080,155.2C10240,163,10400,229,10560,220.5C10720,212,10880,131,11040,81.7C11200,33,11360,16,11440,8.2L11520,0L11520,490L11440,490C11360,490,11200,490,11040,490C10880,490,10720,490,10560,490C10400,490,10240,490,10080,490C9920,490,9760,490,9600,490C9440,490,9280,490,9120,490C8960,490,8800,490,8640,490C8480,490,8320,490,8160,490C8000,490,7840,490,7680,490C7520,490,7360,490,7200,490C7040,490,6880,490,6720,490C6560,490,6400,490,6240,490C6080,490,5920,490,5760,490C5600,490,5440,490,5280,490C5120,490,4960,490,4800,490C4640,490,4480,490,4320,490C4160,490,4000,490,3840,490C3680,490,3520,490,3360,490C3200,490,3040,490,2880,490C2720,490,2560,490,2400,490C2240,490,2080,490,1920,490C1760,490,1600,490,1440,490C1280,490,1120,490,960,490C800,490,640,490,480,490C320,490,160,490,80,490L0,490Z"/></svg>