<svg xmlns="http://www.w3.org/2000/svg" xmlns:xlink="http://www.w3.org/1999/xlink" width="1000" zoomAndPan="magnify" viewBox="0 0 750 187.499995" height="250" preserveAspectRatio="xMidYMid meet" version="1.0"><defs><g/><clipPath id="49d85e0073"><path d="M 591 47 L 734 47 L 734 167.84375 L 591 167.84375 Z M 591 47 " clip-rule="nonzero"/></clipPath><clipPath id="ded1569b72"><path d="M 651 18.242188 L 673 18.242188 L 673 40 L 651 40 Z M 651 18.242188 " clip-rule="nonzero"/></clipPath><clipPath id="ba4666cdab"><path d="M 581.015625 80 L 595 80 L 595 109 L 581.015625 109 Z M 581.015625 80 " clip-rule="nonzero"/></clipPath></defs><g fill="#0086ff" fill-opacity="1"><g transform="translate(6.020395, 163.416473)"><g><path d="M 130.53125 -100.765625 C 137.550781 -100.765625 144.082031 -99.457031 150.125 -96.84375 C 156.175781 -94.226562 161.515625 -90.644531 166.140625 -86.09375 C 170.765625 -81.539062 174.382812 -76.238281 177 -70.1875 C 179.613281 -64.144531 180.921875 -57.617188 180.921875 -50.609375 L 180.921875 -0.21875 L 160.984375 -0.21875 L 160.984375 -50.609375 C 160.984375 -54.785156 160.195312 -58.703125 158.625 -62.359375 C 157.0625 -66.015625 154.898438 -69.222656 152.140625 -71.984375 C 149.378906 -74.742188 146.132812 -76.90625 142.40625 -78.46875 C 138.675781 -80.039062 134.71875 -80.828125 130.53125 -80.828125 C 126.351562 -80.828125 122.4375 -80.039062 118.78125 -78.46875 C 115.125 -76.90625 111.914062 -74.742188 109.15625 -71.984375 C 106.394531 -69.222656 104.226562 -66.015625 102.65625 -62.359375 C 101.09375 -58.703125 100.3125 -54.785156 100.3125 -50.609375 L 100.3125 -0.21875 L 80.375 -0.21875 L 80.375 -50.609375 C 80.375 -54.785156 79.59375 -58.703125 78.03125 -62.359375 C 76.46875 -66.015625 74.300781 -69.222656 71.53125 -71.984375 C 68.769531 -74.742188 65.523438 -76.90625 61.796875 -78.46875 C 58.066406 -80.039062 54.113281 -80.828125 49.9375 -80.828125 C 45.75 -80.828125 41.828125 -80.039062 38.171875 -78.46875 C 34.515625 -76.90625 31.304688 -74.742188 28.546875 -71.984375 C 25.785156 -69.222656 23.617188 -66.015625 22.046875 -62.359375 C 20.484375 -58.703125 19.703125 -54.785156 19.703125 -50.609375 L 19.703125 -0.21875 L -0.21875 -0.21875 L -0.21875 -50.609375 C -0.21875 -57.617188 1.082031 -64.144531 3.6875 -70.1875 C 6.300781 -76.238281 9.882812 -81.539062 14.4375 -86.09375 C 18.988281 -90.644531 24.320312 -94.226562 30.4375 -96.84375 C 36.5625 -99.457031 43.0625 -100.765625 49.9375 -100.765625 C 58.289062 -100.765625 65.9375 -98.929688 72.875 -95.265625 C 79.820312 -91.609375 85.609375 -86.644531 90.234375 -80.375 C 94.859375 -86.644531 100.675781 -91.609375 107.6875 -95.265625 C 114.707031 -98.929688 122.320312 -100.765625 130.53125 -100.765625 Z M 130.53125 -100.765625 "/></g></g></g><g fill="#0086ff" fill-opacity="1"><g transform="translate(194.096839, 163.416473)"><g><path d="M 78.8125 -35.59375 L 92.921875 -21.5 L 85.984375 -14.546875 C 81.203125 -9.773438 75.75 -6.117188 69.625 -3.578125 C 63.507812 -1.046875 57.09375 0.21875 50.375 0.21875 C 43.65625 0.21875 37.234375 -1.046875 31.109375 -3.578125 C 24.992188 -6.117188 19.550781 -9.773438 14.78125 -14.546875 C 9.851562 -19.472656 6.191406 -25.035156 3.796875 -31.234375 C 1.410156 -37.429688 0.21875 -43.738281 0.21875 -50.15625 C 0.21875 -56.570312 1.410156 -62.835938 3.796875 -68.953125 C 6.191406 -75.078125 9.851562 -80.601562 14.78125 -85.53125 C 19.707031 -90.457031 25.265625 -94.148438 31.453125 -96.609375 C 37.648438 -99.078125 43.957031 -100.3125 50.375 -100.3125 C 56.789062 -100.3125 63.097656 -99.078125 69.296875 -96.609375 C 75.492188 -94.148438 81.054688 -90.457031 85.984375 -85.53125 L 92.921875 -78.59375 L 37.171875 -22.84375 C 42.835938 -20 48.84375 -19.0625 55.1875 -20.03125 C 61.53125 -21.007812 67.09375 -23.882812 71.875 -28.65625 Z M 28.890625 -71.65625 C 22.910156 -65.675781 19.921875 -58.507812 19.921875 -50.15625 C 19.921875 -45.53125 20.96875 -41.125 23.0625 -36.9375 C 24.851562 -38.726562 27.578125 -41.453125 31.234375 -45.109375 C 34.890625 -48.773438 38.769531 -52.660156 42.875 -56.765625 C 46.976562 -60.867188 50.929688 -64.785156 54.734375 -68.515625 C 58.546875 -72.242188 61.5 -75.15625 63.59375 -77.25 C 57.914062 -80.082031 51.90625 -81.050781 45.5625 -80.15625 C 39.21875 -79.257812 33.660156 -76.425781 28.890625 -71.65625 Z M 28.890625 -71.65625 "/></g></g></g><g fill="#000000" fill-opacity="1"><g transform="translate(293.736497, 163.416473)"><g><path d="M 50.375 -100.3125 C 57.394531 -100.3125 63.925781 -99.003906 69.96875 -96.390625 C 76.007812 -93.773438 81.304688 -90.191406 85.859375 -85.640625 C 90.421875 -81.085938 94.003906 -75.785156 96.609375 -69.734375 C 99.222656 -63.691406 100.53125 -57.164062 100.53125 -50.15625 C 100.53125 -43.289062 99.222656 -36.796875 96.609375 -30.671875 C 94.003906 -24.554688 90.421875 -19.179688 85.859375 -14.546875 C 81.304688 -9.921875 76.007812 -6.300781 69.96875 -3.6875 C 63.925781 -1.082031 57.394531 0.21875 50.375 0.21875 C 43.507812 0.21875 37.015625 -1.082031 30.890625 -3.6875 C 24.773438 -6.300781 19.40625 -9.921875 14.78125 -14.546875 C 10.15625 -19.179688 6.535156 -24.554688 3.921875 -30.671875 C 1.304688 -36.796875 0 -43.289062 0 -50.15625 L 0 -140.609375 L 19.921875 -140.609375 L 19.921875 -100.3125 Z M 50.375 -19.703125 C 54.550781 -19.703125 58.46875 -20.484375 62.125 -22.046875 C 65.789062 -23.617188 69.003906 -25.785156 71.765625 -28.546875 C 74.523438 -31.304688 76.6875 -34.550781 78.25 -38.28125 C 79.820312 -42.019531 80.609375 -45.976562 80.609375 -50.15625 C 80.609375 -54.332031 79.820312 -58.25 78.25 -61.90625 C 76.6875 -65.5625 74.523438 -68.769531 71.765625 -71.53125 C 69.003906 -74.300781 65.789062 -76.46875 62.125 -78.03125 C 58.46875 -79.59375 54.550781 -80.375 50.375 -80.375 L 19.921875 -80.375 L 19.921875 -50.15625 C 19.921875 -45.976562 20.703125 -42.019531 22.265625 -38.28125 C 23.835938 -34.550781 26.003906 -31.304688 28.765625 -28.546875 C 31.535156 -25.785156 34.785156 -23.617188 38.515625 -22.046875 C 42.242188 -20.484375 46.195312 -19.703125 50.375 -19.703125 Z M 50.375 -19.703125 "/></g></g></g><g fill="#000000" fill-opacity="1"><g transform="translate(400.31316, 163.416473)"><g><path d="M 0 -50.15625 C 0 -57.164062 1.304688 -63.691406 3.921875 -69.734375 C 6.535156 -75.785156 10.117188 -81.085938 14.671875 -85.640625 C 19.222656 -90.191406 24.554688 -93.773438 30.671875 -96.390625 C 36.796875 -99.003906 43.289062 -100.3125 50.15625 -100.3125 C 57.164062 -100.3125 63.691406 -99.003906 69.734375 -96.390625 C 75.785156 -93.773438 81.125 -90.191406 85.75 -85.640625 C 90.382812 -81.085938 94.003906 -75.785156 96.609375 -69.734375 C 99.222656 -63.691406 100.53125 -57.164062 100.53125 -50.15625 C 100.53125 -43.289062 99.222656 -36.796875 96.609375 -30.671875 C 94.003906 -24.554688 90.382812 -19.179688 85.75 -14.546875 C 81.125 -9.921875 75.785156 -6.300781 69.734375 -3.6875 C 63.691406 -1.082031 57.164062 0.21875 50.15625 0.21875 C 43.289062 0.21875 36.796875 -1.082031 30.671875 -3.6875 C 24.554688 -6.300781 19.222656 -9.921875 14.671875 -14.546875 C 10.117188 -19.179688 6.535156 -24.554688 3.921875 -30.671875 C 1.304688 -36.796875 0 -43.289062 0 -50.15625 Z M 19.703125 -50.15625 C 19.703125 -45.976562 20.484375 -42.019531 22.046875 -38.28125 C 23.617188 -34.550781 25.785156 -31.304688 28.546875 -28.546875 C 31.304688 -25.785156 34.550781 -23.617188 38.28125 -22.046875 C 42.019531 -20.484375 45.976562 -19.703125 50.15625 -19.703125 C 54.332031 -19.703125 58.285156 -20.484375 62.015625 -22.046875 C 65.753906 -23.617188 69.003906 -25.785156 71.765625 -28.546875 C 74.523438 -31.304688 76.6875 -34.550781 78.25 -38.28125 C 79.820312 -42.019531 80.609375 -45.976562 80.609375 -50.15625 C 80.609375 -54.332031 79.820312 -58.25 78.25 -61.90625 C 76.6875 -65.5625 74.523438 -68.769531 71.765625 -71.53125 C 69.003906 -74.300781 65.753906 -76.46875 62.015625 -78.03125 C 58.285156 -79.59375 54.332031 -80.375 50.15625 -80.375 C 45.976562 -80.375 42.019531 -79.59375 38.28125 -78.03125 C 34.550781 -76.46875 31.304688 -74.300781 28.546875 -71.53125 C 25.785156 -68.769531 23.617188 -65.5625 22.046875 -61.90625 C 20.484375 -58.25 19.703125 -54.332031 19.703125 -50.15625 Z M 19.703125 -50.15625 "/></g></g></g><g fill="#000000" fill-opacity="1"><g transform="translate(507.561522, 163.416473)"><g><path d="M 60.234375 -20.15625 L 60.234375 -0.21875 L 50.375 -0.21875 C 43.507812 -0.21875 37.015625 -1.523438 30.890625 -4.140625 C 24.773438 -6.753906 19.40625 -10.375 14.78125 -15 C 10.15625 -19.625 6.535156 -24.992188 3.921875 -31.109375 C 1.304688 -37.234375 0 -43.734375 0 -50.609375 L 0 -141.0625 L 19.921875 -141.0625 L 19.921875 -80.609375 L 60.234375 -80.609375 L 60.234375 -60.671875 L 19.921875 -60.671875 L 19.921875 -50.609375 C 19.921875 -46.421875 20.703125 -42.460938 22.265625 -38.734375 C 23.835938 -35.003906 26.003906 -31.757812 28.765625 -29 C 31.535156 -26.238281 34.785156 -24.070312 38.515625 -22.5 C 42.242188 -20.9375 46.195312 -20.15625 50.375 -20.15625 Z M 60.234375 -20.15625 "/></g></g></g><g clip-path="url(#49d85e0073)"><path fill="#0086ff" d="M 638.777344 47.050781 L 686.023438 47.050781 C 699.011719 47.050781 710.8125 52.359375 719.367188 60.914062 C 727.917969 69.464844 733.230469 81.273438 733.230469 94.261719 C 733.230469 107.246094 727.917969 119.054688 719.367188 127.605469 C 710.8125 136.160156 699.011719 141.464844 686.023438 141.464844 L 680.867188 141.464844 L 654.65625 165.894531 C 652.285156 168.09375 648.578125 167.960938 646.375 165.59375 C 645.324219 164.464844 644.804688 163.03125 644.804688 161.601562 L 644.792969 161.601562 L 644.792969 141.464844 L 638.777344 141.464844 C 625.792969 141.464844 613.988281 136.160156 605.433594 127.605469 C 596.878906 119.054688 591.570312 107.246094 591.570312 94.261719 C 591.570312 81.273438 596.878906 69.464844 605.433594 60.914062 C 613.988281 52.359375 625.792969 47.050781 638.777344 47.050781 Z M 686.023438 58.792969 L 638.777344 58.792969 C 629.03125 58.792969 620.167969 62.789062 613.738281 69.21875 C 607.304688 75.644531 603.3125 84.511719 603.3125 94.261719 C 603.3125 104.007812 607.304688 112.871094 613.738281 119.300781 C 620.167969 125.730469 629.03125 129.726562 638.777344 129.726562 L 650.660156 129.726562 C 653.90625 129.726562 656.535156 132.355469 656.535156 135.597656 L 656.535156 148.121094 L 674.292969 131.570312 C 675.367188 130.4375 676.882812 129.726562 678.574219 129.726562 L 686.023438 129.726562 C 695.765625 129.726562 704.636719 125.730469 711.066406 119.300781 C 717.492188 112.871094 721.484375 104.007812 721.484375 94.261719 C 721.484375 84.511719 717.492188 75.644531 711.066406 69.21875 C 704.636719 62.789062 695.765625 58.792969 686.023438 58.792969 Z M 686.023438 58.792969 " fill-opacity="1" fill-rule="nonzero"/></g><path fill="#0086ff" d="M 658.410156 29.300781 L 666.390625 29.300781 L 666.390625 53.527344 L 658.410156 53.527344 Z M 658.410156 29.300781 " fill-opacity="1" fill-rule="evenodd"/><g clip-path="url(#ded1569b72)"><path fill="#0086ff" d="M 662.398438 18.292969 C 668.175781 18.292969 672.859375 22.976562 672.859375 28.75 C 672.859375 34.527344 668.175781 39.210938 662.398438 39.210938 C 656.625 39.210938 651.941406 34.527344 651.941406 28.75 C 651.941406 22.976562 656.625 18.292969 662.398438 18.292969 Z M 662.398438 18.292969 " fill-opacity="1" fill-rule="evenodd"/></g><g clip-path="url(#ba4666cdab)"><path fill="#0086ff" d="M 594.972656 108.21875 C 587.261719 108.21875 581.015625 101.964844 581.015625 94.261719 C 581.015625 86.554688 587.261719 80.300781 594.972656 80.300781 Z M 594.972656 108.21875 " fill-opacity="1" fill-rule="evenodd"/></g><path fill="#0086ff" d="M 730.023438 108.21875 C 737.730469 108.21875 743.980469 101.964844 743.980469 94.261719 C 743.980469 86.554688 737.730469 80.300781 730.023438 80.300781 Z M 730.023438 108.21875 " fill-opacity="1" fill-rule="evenodd"/><path fill="#0086ff" d="M 643.277344 77.554688 C 646.6875 77.554688 649.480469 80.347656 649.480469 83.761719 L 649.480469 102.546875 C 649.480469 105.960938 646.6875 108.75 643.277344 108.75 C 639.863281 108.75 637.070312 105.960938 637.070312 102.546875 L 637.070312 83.761719 C 637.070312 80.347656 639.863281 77.554688 643.277344 77.554688 Z M 643.277344 77.554688 " fill-opacity="1" fill-rule="evenodd"/><path fill="#0086ff" d="M 681.523438 77.554688 L 681.527344 77.554688 C 684.9375 77.554688 687.730469 80.347656 687.730469 83.761719 L 687.730469 102.546875 C 687.730469 105.960938 684.9375 108.75 681.527344 108.75 L 681.523438 108.75 C 678.109375 108.75 675.320312 105.960938 675.320312 102.546875 L 675.320312 83.761719 C 675.320312 80.347656 678.109375 77.554688 681.523438 77.554688 Z M 681.523438 77.554688 " fill-opacity="1" fill-rule="evenodd"/></svg>